<?xml version="1.0" encoding="utf-8"?>
<!-- Generator: Adobe Illustrator 17.0.0, SVG Export Plug-In . SVG Version: 6.00 Build 0)  -->
<!DOCTYPE svg PUBLIC "-//W3C//DTD SVG 1.1//EN" "http://www.w3.org/Graphics/SVG/1.1/DTD/svg11.dtd">
<svg version="1.1" xmlns="http://www.w3.org/2000/svg" xmlns:xlink="http://www.w3.org/1999/xlink" x="0px" y="0px"
	 width="755.45px" height="345.333px" viewBox="0 0 755.45 345.333" enable-background="new 0 0 755.45 345.333"
	 xml:space="preserve">
<g id="Слой_1">
	<rect x="273.283" y="175.167" fill="#FFFFFF" stroke="#000000" stroke-miterlimit="10" width="28.333" height="151"/>
	<rect x="23" y="241.5" fill="none" stroke="#000000" stroke-miterlimit="10" width="250.283" height="17.333"/>
	<rect x="460.616" y="175.167" fill="#FFFFFF" stroke="#000000" stroke-miterlimit="10" width="29.333" height="151"/>
	<rect x="489.949" y="242.5" fill="none" stroke="#000000" stroke-miterlimit="10" width="114.869" height="17.333"/>
	<rect x="105.949" y="175.167" fill="#FFFFFF" stroke="#000000" stroke-miterlimit="10" width="30" height="151"/>
	<rect x="96.283" y="326.167" fill="#FFFFFF" stroke="#000000" stroke-miterlimit="10" width="49.667" height="18.667"/>
	<rect x="263.949" y="326.167" fill="#FFFFFF" stroke="#000000" stroke-miterlimit="10" width="49.333" height="18.667"/>
	<line fill="none" stroke="#000000" stroke-miterlimit="10" x1="149.949" y1="252.167" x2="149.949" y2="263.833"/>
	<line fill="none" stroke="#000000" stroke-miterlimit="10" x1="205.283" y1="236.833" x2="205.283" y2="245.5"/>
	<line fill="none" stroke="#000000" stroke-miterlimit="10" x1="205.283" y1="252.167" x2="205.283" y2="263.833"/>
	<line fill="none" stroke="#000000" stroke-miterlimit="10" x1="177.283" y1="252.167" x2="177.283" y2="263.833"/>
	<line fill="none" stroke="#000000" stroke-miterlimit="10" x1="335.283" y1="251.167" x2="335.283" y2="262.833"/>
	<line fill="none" stroke="#000000" stroke-miterlimit="10" x1="381.449" y1="250.667" x2="381.449" y2="262.833"/>
	<line fill="none" stroke="#000000" stroke-miterlimit="10" x1="412.449" y1="251.167" x2="412.449" y2="262.833"/>
	<line fill="none" stroke="#000000" stroke-miterlimit="10" x1="405.283" y1="225.417" x2="391.283" y2="225.417"/>
	<line fill="none" stroke="#000000" stroke-miterlimit="10" x1="405.283" y1="192.25" x2="391.283" y2="192.25"/>
	<line fill="none" stroke="#000000" stroke-miterlimit="10" x1="357.949" y1="192.25" x2="371.283" y2="192.25"/>
	<line fill="none" stroke="#000000" stroke-miterlimit="10" x1="357.949" y1="225.417" x2="371.283" y2="225.417"/>
	<line fill="none" stroke="#000000" stroke-miterlimit="10" x1="508.116" y1="234.167" x2="508.116" y2="245.5"/>
	<line fill="none" stroke="#000000" stroke-miterlimit="10" x1="544.616" y1="234.167" x2="544.616" y2="245.5"/>
	<line fill="none" stroke="#000000" stroke-miterlimit="10" x1="583.717" y1="234.167" x2="583.717" y2="245.5"/>
	<line fill="none" stroke="#000000" stroke-miterlimit="10" x1="583.717" y1="264.833" x2="583.717" y2="254.75"/>
	<line fill="none" stroke="#000000" stroke-miterlimit="10" x1="544.616" y1="264.833" x2="544.616" y2="254.75"/>
	<line fill="none" stroke="#000000" stroke-miterlimit="10" x1="508.116" y1="264.833" x2="508.116" y2="254.75"/>
	<line fill="none" stroke="#000000" stroke-miterlimit="10" x1="246.616" y1="245.5" x2="246.616" y2="236.833"/>
	<line fill="none" stroke="#000000" stroke-miterlimit="10" x1="246.616" y1="251.542" x2="246.616" y2="263.458"/>
	<line fill="none" stroke="#000000" stroke-miterlimit="10" x1="81.616" y1="264.833" x2="81.616" y2="252.167"/>
	<line fill="none" stroke="#000000" stroke-miterlimit="10" x1="40.141" y1="264.833" x2="40.141" y2="251.542"/>
	<line fill="none" stroke="#000000" stroke-miterlimit="10" x1="94.283" y1="236.833" x2="94.283" y2="245.5"/>
	<line fill="none" stroke="#000000" stroke-miterlimit="10" x1="69.949" y1="236.833" x2="69.949" y2="245.5"/>
	<line fill="none" stroke="#000000" stroke-miterlimit="10" x1="40.141" y1="236.833" x2="40.141" y2="245.5"/>
	<rect x="145.949" y="326.167" fill="none" stroke="#000000" stroke-miterlimit="10" width="7.5" height="18.667"/>
	<rect x="153.449" y="326.167" fill="none" stroke="#000000" stroke-miterlimit="10" width="7.5" height="18.667"/>
	<rect x="160.949" y="326.167" fill="none" stroke="#000000" stroke-miterlimit="10" width="7" height="18.667"/>
	<rect x="89.949" y="326.167" fill="none" stroke="#000000" stroke-miterlimit="10" width="6.333" height="18.667"/>
	<rect x="82.616" y="326.167" fill="none" stroke="#000000" stroke-miterlimit="10" width="7.333" height="18.667"/>
	<rect x="75.949" y="326.167" fill="none" stroke="#000000" stroke-miterlimit="10" width="6.667" height="18.667"/>
	<rect x="256.949" y="326.167" fill="none" stroke="#000000" stroke-miterlimit="10" width="7" height="18.667"/>
	<rect x="313.283" y="326.167" fill="none" stroke="#000000" stroke-miterlimit="10" width="5.359" height="18.667"/>
	<rect x="318.641" y="326.167" fill="none" stroke="#000000" stroke-miterlimit="10" width="5.808" height="18.667"/>
	<rect x="324.449" y="326.167" fill="none" stroke="#000000" stroke-miterlimit="10" width="5" height="18.667"/>
	<rect x="250.949" y="326.167" fill="none" stroke="#000000" stroke-miterlimit="10" width="6" height="18.667"/>
	<rect x="244.449" y="326.167" fill="none" stroke="#000000" stroke-miterlimit="10" width="6.5" height="18.667"/>
	<rect x="335.283" y="115.833" fill="none" width="30" height="59.333"/>
	<line fill="none" stroke="#000000" stroke-miterlimit="10" x1="127.949" y1="80.5" x2="127.949" y2="99.5"/>
	<line fill="none" stroke="#000000" stroke-miterlimit="10" x1="187.283" y1="80.5" x2="187.283" y2="99.5"/>
	<line fill="none" stroke="#000000" stroke-miterlimit="10" x1="57.283" y1="80.5" x2="57.283" y2="99.5"/>
	<line fill="none" stroke="#000000" stroke-miterlimit="10" x1="239.449" y1="80.5" x2="239.449" y2="99.5"/>
	<line fill="none" stroke="#000000" stroke-miterlimit="10" x1="313.283" y1="80.5" x2="313.283" y2="99.5"/>
	<line fill="none" stroke="#000000" stroke-miterlimit="10" x1="287.449" y1="122.5" x2="287.449" y2="108.5"/>
	<line fill="none" stroke="#000000" stroke-miterlimit="10" x1="219.949" y1="122.5" x2="219.949" y2="108.5"/>
	<line fill="none" stroke="#000000" stroke-miterlimit="10" x1="167.949" y1="122.5" x2="167.949" y2="108.5"/>
	<line fill="none" stroke="#000000" stroke-miterlimit="10" x1="105.949" y1="122.5" x2="105.949" y2="108.5"/>
	<line fill="none" stroke="#000000" stroke-miterlimit="10" x1="49.949" y1="122.5" x2="49.949" y2="108.5"/>
	<line fill="none" stroke="#000000" stroke-miterlimit="10" x1="449.116" y1="80.5" x2="449.116" y2="99.5"/>
	<line fill="none" stroke="#000000" stroke-miterlimit="10" x1="492.783" y1="80.5" x2="492.783" y2="99.5"/>
	<line fill="none" stroke="#000000" stroke-miterlimit="10" x1="536.616" y1="80.5" x2="536.616" y2="99.5"/>
	<line fill="none" stroke="#000000" stroke-miterlimit="10" x1="583.717" y1="80.5" x2="583.717" y2="99.5"/>
	<line fill="none" stroke="#000000" stroke-miterlimit="10" x1="624.116" y1="80.5" x2="624.116" y2="99.5"/>
	<line fill="none" stroke="#000000" stroke-miterlimit="10" x1="664.283" y1="80.5" x2="664.283" y2="99.5"/>
	<line fill="none" stroke="#000000" stroke-miterlimit="10" x1="664.283" y1="122.5" x2="664.283" y2="108.5"/>
	<line fill="none" stroke="#000000" stroke-miterlimit="10" x1="624.116" y1="122.5" x2="624.116" y2="108.5"/>
	<line fill="none" stroke="#000000" stroke-miterlimit="10" x1="581.783" y1="122.5" x2="581.783" y2="108.5"/>
	<line fill="none" stroke="#000000" stroke-miterlimit="10" x1="536.616" y1="122.5" x2="536.616" y2="108.5"/>
	<line fill="none" stroke="#000000" stroke-miterlimit="10" x1="489.949" y1="122.5" x2="489.949" y2="108.5"/>
	<line fill="none" stroke="#000000" stroke-miterlimit="10" x1="443.949" y1="122.5" x2="443.949" y2="108.5"/>
	<rect x="452.283" y="326.167" fill="#FFFFFF" stroke="#000000" stroke-miterlimit="10" width="49.333" height="18.667"/>
	<rect x="445.283" y="326.167" fill="none" stroke="#000000" stroke-miterlimit="10" width="7" height="18.667"/>
	<rect x="501.616" y="326.167" fill="none" stroke="#000000" stroke-miterlimit="10" width="5.359" height="18.667"/>
	<rect x="506.975" y="326.167" fill="none" stroke="#000000" stroke-miterlimit="10" width="5.808" height="18.667"/>
	<rect x="512.783" y="326.167" fill="none" stroke="#000000" stroke-miterlimit="10" width="5" height="18.667"/>
	<rect x="439.283" y="326.167" fill="none" stroke="#000000" stroke-miterlimit="10" width="6" height="18.667"/>
	<rect x="432.783" y="326.167" fill="none" stroke="#000000" stroke-miterlimit="10" width="6.5" height="18.667"/>
	<line fill="none" stroke="#000000" stroke-miterlimit="10" x1="604.818" y1="326.167" x2="624.116" y2="326.167"/>
	<line fill="none" stroke="#000000" stroke-miterlimit="10" x1="725.95" y1="196.5" x2="725.95" y2="168.5"/>
	<line fill="none" stroke="#000000" stroke-miterlimit="10" x1="23" y1="168.5" x2="23" y2="39.833"/>
</g>
<g id="Слой_2">
	<g id="office41">
		<rect x="526.283" y="175.167" fill="#FFFFFF" stroke="#000000" stroke-miterlimit="10" width="36.667" height="67.333"/>
	</g>
	<g id="office42">
		<rect x="562.616" y="175.167" fill="#FFFFFF" stroke="#000000" stroke-miterlimit="10" width="42.202" height="67.333"/>
	</g>
	<g id="office45">
		<rect x="489.949" y="259.833" fill="#FFFFFF" stroke="#000000" stroke-miterlimit="10" width="36.333" height="66.333"/>
	</g>
	<g id="office44">
		<rect x="526.283" y="259.833" fill="#FFFFFF" stroke="#000000" stroke-miterlimit="10" width="36.667" height="66.333"/>
	</g>
	<g id="office43">
		<rect x="562.616" y="259.833" fill="#FFFFFF" stroke="#000000" stroke-miterlimit="10" width="42.202" height="66.333"/>
	</g>
	<g id="office40">
		<rect x="489.949" y="175.167" fill="#FFFFFF" stroke="#000000" stroke-miterlimit="10" width="36.333" height="67.333"/>
	</g>
	<g id="office39">
		<rect x="427.283" y="175.167" fill="#FFFFFF" stroke="#000000" stroke-miterlimit="10" width="33.333" height="66.333"/>
	</g>
	<g id="office37">
		<rect x="397.616" y="175.167" fill="#FFFFFF" stroke="#000000" stroke-miterlimit="10" width="29.667" height="34.167"/>
	</g>
	<g id="office38">
		<rect x="397.616" y="209.333" fill="#FFFFFF" stroke="#000000" stroke-miterlimit="10" width="29.667" height="32.167"/>
	</g>
	<g id="office34">
		<rect x="302" y="175.167" fill="#FFFFFF" stroke="#000000" stroke-miterlimit="10" width="33.283" height="66.333"/>
	</g>
	<g id="office35">
		<rect x="335.283" y="175.167" fill="#FFFFFF" stroke="#000000" stroke-miterlimit="10" width="30" height="34.167"/>
	</g>
	<g id="office36">
		<rect x="335.283" y="209.333" fill="#FFFFFF" stroke="#000000" stroke-miterlimit="10" width="30" height="32.167"/>
	</g>
	<g id="office47">
		<rect x="365.283" y="258.833" fill="#FFFFFF" stroke="#000000" stroke-miterlimit="10" width="32.333" height="67.333"/>
	</g>
	<g id="office33">
		<rect x="219.949" y="175.167" fill="#FFFFFF" stroke="#000000" stroke-miterlimit="10" width="53.333" height="66.333"/>
	</g>
	<g id="office49">
		<rect x="219.949" y="258.833" fill="#FFFFFF" stroke="#000000" stroke-miterlimit="10" width="53.333" height="67.333"/>
	</g>
	<g id="office50">
		<rect x="190.616" y="258.833" fill="#FFFFFF" stroke="#000000" stroke-miterlimit="10" width="29.333" height="67.333"/>
	</g>
	<g id="office51">
		<rect x="163.949" y="258.833" fill="#FFFFFF" stroke="#000000" stroke-miterlimit="10" width="26.667" height="67.333"/>
	</g>
	<g id="office52">
		<rect x="135.949" y="258.833" fill="#FFFFFF" stroke="#000000" stroke-miterlimit="10" width="28" height="67.333"/>
	</g>
	<g id="office32">
		<rect x="135.949" y="175.167" fill="#FFFFFF" stroke="#000000" stroke-miterlimit="10" width="84" height="66.333"/>
	</g>
	<g id="office31">
		<rect x="82.616" y="175.167" fill="#FFFFFF" stroke="#000000" stroke-miterlimit="10" width="23.333" height="66.333"/>
	</g>
	<g id="office30">
		<rect x="54.641" y="175.167" fill="#FFFFFF" stroke="#000000" stroke-miterlimit="10" width="27.975" height="66.333"/>
	</g>
	<g id="office53">
		<rect x="57.283" y="258.833" fill="#FFFFFF" stroke="#000000" stroke-miterlimit="10" width="48.667" height="67.333"/>
	</g>
	<g id="office46">
		<rect x="397.616" y="258.833" fill="#FFFFFF" stroke="#000000" stroke-miterlimit="10" width="63" height="67.333"/>
	</g>
	<g id="office48">
		<rect x="302" y="258.833" fill="#FFFFFF" stroke="#000000" stroke-miterlimit="10" width="63.283" height="67.333"/>
	</g>
	<g id="office29">
		<rect x="23" y="175.167" fill="#FFFFFF" stroke="#000000" stroke-miterlimit="10" width="31.641" height="66.333"/>
	</g>
	<g id="office54">
		<rect x="23" y="258.833" fill="#FFFFFF" stroke="#000000" stroke-miterlimit="10" width="34.283" height="67.333"/>
	</g>
	<g id="office21">
		<rect x="397.616" y="115.833" fill="#FFFFFF" stroke="#000000" stroke-miterlimit="10" width="29.667" height="52.667"/>
	</g>
	<g id="office20">
		<rect x="335.283" y="115.833" fill="#FFFFFF" stroke="#000000" stroke-miterlimit="10" width="30" height="52.667"/>
	</g>
	<g id="office22">
		<rect x="427.283" y="115.833" fill="#FFFFFF" stroke="#000000" stroke-miterlimit="10" width="43.667" height="52.667"/>
	</g>
	<g id="office23">
		<rect x="470.949" y="115.833" fill="#FFFFFF" stroke="#000000" stroke-miterlimit="10" width="43.667" height="52.667"/>
	</g>
	<g id="office24">
		<rect x="515.616" y="115.833" fill="#FFFFFF" stroke="#000000" stroke-miterlimit="10" width="44" height="52.667"/>
	</g>
	<g id="office25">
		<rect x="559.616" y="115.833" fill="#FFFFFF" stroke="#000000" stroke-miterlimit="10" width="44.333" height="52.667"/>
	</g>
	<g id="office26">
		<rect x="603.283" y="115.833" fill="#FFFFFF" stroke="#000000" stroke-miterlimit="10" width="41.667" height="52.667"/>
	</g>
	<g id="office28">
		<rect x="644.949" y="115.833" fill="#FFFFFF" stroke="#000000" stroke-miterlimit="10" width="38.667" height="52.667"/>
	</g>
	<g id="office19">
		<rect x="264.449" y="115.833" fill="#FFFFFF" stroke="#000000" stroke-miterlimit="10" width="70.833" height="52.667"/>
	</g>
	<g id="office18">
		<rect x="202.949" y="115.833" fill="#FFFFFF" stroke="#000000" stroke-miterlimit="10" width="61.5" height="52.667"/>
	</g>
	<g id="office17">
		<rect x="147.616" y="115.833" fill="#FFFFFF" stroke="#000000" stroke-miterlimit="10" width="55.333" height="52.667"/>
	</g>
	<g id="office15">
		<rect x="23" y="115.833" fill="#FFFFFF" stroke="#000000" stroke-miterlimit="10" width="63.283" height="52.667"/>
	</g>
	<g id="office14">
		<rect x="683.616" y="39.833" fill="#FFFFFF" stroke="#000000" stroke-miterlimit="10" width="62.333" height="128.667"/>
	</g>
	<g id="office13">
		<rect x="644.949" y="39.833" fill="#FFFFFF" stroke="#000000" stroke-miterlimit="10" width="38.667" height="51.667"/>
	</g>
	<g id="office12">
		<rect x="603.283" y="39.833" fill="#FFFFFF" stroke="#000000" stroke-miterlimit="10" width="41.667" height="51.667"/>
	</g>
	<g id="office11">
		<rect x="559.616" y="39.833" fill="#FFFFFF" stroke="#000000" stroke-miterlimit="10" width="44.333" height="51.667"/>
	</g>
	<g id="office10">
		<rect x="515.616" y="39.833" fill="#FFFFFF" stroke="#000000" stroke-miterlimit="10" width="44" height="51.667"/>
	</g>
	<g id="office9">
		<rect x="470.949" y="39.833" fill="#FFFFFF" stroke="#000000" stroke-miterlimit="10" width="44.667" height="51.667"/>
	</g>
	<g id="office8">
		<rect x="427.283" y="39.833" fill="#FFFFFF" stroke="#000000" stroke-miterlimit="10" width="43.667" height="51.667"/>
	</g>
	<g id="office6">
		<rect x="336.333" y="39.833" fill="#FFFFFF" stroke="#000000" stroke-miterlimit="10" width="28.949" height="51.667"/>
	</g>
	<g id="office5">
		<rect x="264.449" y="39.833" fill="#FFFFFF" stroke="#000000" stroke-miterlimit="10" width="71.884" height="51.667"/>
	</g>
	<g id="office4">
		<rect x="214.949" y="39.833" fill="#FFFFFF" stroke="#000000" stroke-miterlimit="10" width="49" height="51.667"/>
	</g>
	<g id="office3">
		<rect x="159.616" y="39.833" fill="#FFFFFF" stroke="#000000" stroke-miterlimit="10" width="55.333" height="51.667"/>
	</g>
	<g id="office2">
		<rect x="96.283" y="39.833" fill="#FFFFFF" stroke="#000000" stroke-miterlimit="10" width="63.333" height="51.667"/>
	</g>
	<g id="office16">
		<rect x="84.616" y="115.833" fill="#FFFFFF" stroke="#000000" stroke-miterlimit="10" width="63" height="52.667"/>
	</g>
	<g id="office7">
		<rect x="397.616" y="39.833" fill="#FFFFFF" stroke="#000000" stroke-miterlimit="10" width="29.667" height="51.667"/>
	</g>
	<rect x="624.116" y="186.5" fill="#FDFDFD" stroke="#000000" stroke-miterlimit="10" width="101.833" height="139.667"/>
	<g id="office1">
		<rect x="43.283" y="39.833" fill="#FFFFFF" stroke="#000000" stroke-miterlimit="10" width="53.333" height="51.667"/>
	</g>
</g>
</svg>
