<svg xmlns="http://www.w3.org/2000/svg" xmlns:se="http://svg-edit.googlecode.com" xmlns:xlink="http://www.w3.org/1999/xlink" xmlns:dc="http://purl.org/dc/elements/1.1/" xmlns:cc="http://creativecommons.org/ns#" xmlns:rdf="http://www.w3.org/1999/02/22-rdf-syntax-ns#" xmlns:inkscape="http://www.inkscape.org/namespaces/inkscape" width="777" height="480">
    <title>my vector image</title>
    <!-- Created with Vector Paint - http://www.vectorpaint.yaks.com/ https://chrome.google.com/webstore/detail/hnbpdiengicdefcjecjbnjnoifekhgdo -->
    <rect id="backgroundrect" width="100%" height="100%" x="0" y="0" fill="#FFFFFF" stroke="none" />
    <g class="currentLayer">
        <title>Layer 1</title>
        <rect fill="none" stroke="#000000" stroke-width="2" stroke-linejoin="round" stroke-dashoffset="" fill-rule="nonzero" id="svg_1" x="97.20000076293945" y="63.80000019073486" width="114" height="101" style="color: rgb(0, 0, 0);" class="" />
        <path fill="#dadada" fill-opacity="1" stroke="#000000" stroke-opacity="1" stroke-width="2" stroke-dasharray="none" stroke-linejoin="round" stroke-linecap="butt" stroke-dashoffset="" fill-rule="nonzero" opacity="1" marker-start="" marker-mid="" marker-end="" id="svg_7" d="M308.40000343322754,80.80000038146974 C308.40000343322754,81.60000038146973 270.00000343322756,164.00000038146973 269.6000034332275,164.00000038146973 C270.00000343322756,164.00000038146973 354.00000343322756,207.20000038146975 354.00000343322756,208.00000038146973 C354.00000343322756,208.80000038146972 399.6000034332276,124.0000003814697 399.6000034332276,123.20000038146972 C399.6000034332276,122.40000038146974 381.20000343322755,67.20000038146972 381.20000343322755,67.20000038146972 C381.20000343322755,67.20000038146972 308.40000343322754,80.00000038146977 308.40000343322754,80.80000038146974 z" style="color: rgb(0, 0, 0);" class="" />
        <path fill="#dadada" fill-opacity="1" stroke="#000000" stroke-opacity="1" stroke-width="2" stroke-dasharray="none" stroke-linejoin="round" stroke-linecap="butt" stroke-dashoffset="" fill-rule="nonzero" opacity="1" marker-start="" marker-mid="" marker-end="" id="svg_9" d="M98.79999980926513,316.00000038146976 C98.79999980926513,315.20000038146975 137.99999980926515,375.20000038146975 137.99999980926515,375.20000038146975 C137.99999980926515,375.20000038146975 240.39999980926513,339.2000003814698 240.39999980926513,338.4000003814698 C240.39999980926513,337.6000003814698 222.79999980926513,279.2000003814698 222.79999980926513,278.4000003814698 C222.79999980926513,277.6000003814698 144.39999980926515,257.6000003814698 143.99999980926515,257.6000003814697 C144.39999980926515,257.6000003814698 135.59999980926514,208.00000038146973 135.19999980926514,208.00000038146973 C135.59999980926514,208.00000038146973 105.19999980926517,216.80000038146972 104.39999980926515,216.80000038146972 C103.59999980926514,216.80000038146972 118.79999980926516,262.40000038146974 118.39999980926514,262.40000038146974 C118.79999980926516,262.40000038146974 98.79999980926513,316.8000003814698 98.79999980926513,316.00000038146976 z" style="color: rgb(0, 0, 0);" class="" />
        <path fill="#ffffff" fill-opacity="1" stroke="#000000" stroke-opacity="1" stroke-width="2" stroke-dasharray="none" stroke-linejoin="round" stroke-linecap="butt" stroke-dashoffset="" fill-rule="nonzero" opacity="1" marker-start="" marker-mid="" marker-end="" d="M273.19999837875366,314.99999713897705 C273.19999837875366,274.66850542626986 306.31602047820115,241.99999713897705 347.19999837875366,241.99999713897705 C388.08397627930617,241.99999713897705 421.19999837875366,274.66850542626986 421.19999837875366,314.99999713897705 C421.19999837875366,355.33148885168424 388.08397627930617,387.99999713897705 347.19999837875366,387.99999713897705 C306.31602047820115,387.99999713897705 273.19999837875366,355.33148885168424 273.19999837875366,314.99999713897705 z" id="svg_11" class="" />
        <path fill="#ffffff" fill-opacity="1" stroke="#000000" stroke-opacity="1" stroke-width="2" stroke-dasharray="none" stroke-linejoin="round" stroke-linecap="butt" stroke-dashoffset="" fill-rule="nonzero" opacity="1" marker-start="" marker-mid="" marker-end="" id="svg_13" d="M 478.8 108.8 C 479.6 108.8 428.4 200.79999999999998 429.2 201.6 C 430 202.4 480.4 236.00000000000006 480 236 C 480.4 236.00000000000006 482.8 291.20000000000005 482 291.20000000000005 C 481.2 291.20000000000005 565.2 299.20000000000005 564.8 299.2 C 565.2 299.20000000000005 559.5999999999999 94.39999999999998 560.4 93.6 C 561.2 92.80000000000001 479.6 95.19999999999999 479.2 94.4 C 479.6 95.19999999999999 478 108.8 478.8 108.8 z" style="color: rgb(0, 0, 0);" />
    </g>
</svg>
