<?xml version="1.0" encoding="utf-8"?>
<!-- Generator: Adobe Illustrator 17.0.0, SVG Export Plug-In . SVG Version: 6.00 Build 0)  -->
<!DOCTYPE svg PUBLIC "-//W3C//DTD SVG 1.1//EN" "http://www.w3.org/Graphics/SVG/1.1/DTD/svg11.dtd">
<svg version="1.1" xmlns="http://www.w3.org/2000/svg" xmlns:xlink="http://www.w3.org/1999/xlink" x="0px" y="0px"
	 width="756.45px" height="193.51px" viewBox="0 0 756.45 193.51" enable-background="new 0 0 756.45 193.51" xml:space="preserve">
<g id="Слой_1">
	<rect x="0.5" y="0.5" fill="#FDFDFD" stroke="#000000" stroke-miterlimit="10" width="755.45" height="192.51"/>
	<line fill="none" stroke="#000000" stroke-miterlimit="10" x1="716.912" y1="33.441" x2="688.676" y2="33.941"/>
	<line fill="none" stroke="#000000" stroke-miterlimit="10" x1="716.912" y1="144.882" x2="688.676" y2="144.882"/>
	<line fill="none" stroke="#000000" stroke-miterlimit="10" x1="572.794" y1="20.5" x2="572.794" y2="48.627"/>
	<line fill="none" stroke="#000000" stroke-miterlimit="10" x1="572.794" y1="144.882" x2="572.794" y2="169.912"/>
	<line fill="none" stroke="#000000" stroke-miterlimit="10" x1="514.559" y1="20.5" x2="514.559" y2="48.627"/>
	<line fill="none" stroke="#000000" stroke-miterlimit="10" x1="514.559" y1="144.882" x2="514.559" y2="169.912"/>
	<line fill="none" stroke="#000000" stroke-miterlimit="10" x1="455.147" y1="20.5" x2="455.147" y2="48.627"/>
	<line fill="none" stroke="#000000" stroke-miterlimit="10" x1="455.147" y1="144.882" x2="455.147" y2="169.912"/>
	<line fill="none" stroke="#000000" stroke-miterlimit="10" x1="418.088" y1="20.5" x2="418.088" y2="48.627"/>
	<line fill="none" stroke="#000000" stroke-miterlimit="10" x1="381.618" y1="20.5" x2="381.618" y2="48.627"/>
	<line fill="none" stroke="#000000" stroke-miterlimit="10" x1="399.265" y1="144.882" x2="399.265" y2="169.912"/>
	<line fill="none" stroke="#000000" stroke-miterlimit="10" x1="320.735" y1="144.882" x2="320.735" y2="169.912"/>
	<line fill="none" stroke="#000000" stroke-miterlimit="10" x1="345.147" y1="20.5" x2="345.147" y2="48.627"/>
	<line fill="none" stroke="#000000" stroke-miterlimit="10" x1="278.676" y1="20.5" x2="278.676" y2="48.627"/>
	<line fill="none" stroke="#000000" stroke-miterlimit="10" x1="213.382" y1="20.5" x2="213.382" y2="48.627"/>
	<line fill="none" stroke="#000000" stroke-miterlimit="10" x1="179.853" y1="20.5" x2="179.853" y2="48.627"/>
	<line fill="none" stroke="#000000" stroke-miterlimit="10" x1="146.324" y1="20.5" x2="146.324" y2="48.627"/>
	<line fill="none" stroke="#000000" stroke-miterlimit="10" x1="146.324" y1="144.882" x2="146.324" y2="169.912"/>
	<line fill="none" stroke="#000000" stroke-miterlimit="10" x1="220.735" y1="144.882" x2="220.735" y2="169.912"/>
	<line fill="none" stroke="#000000" stroke-miterlimit="10" x1="67.5" y1="65.348" x2="94.559" y2="65.348"/>
	<line fill="none" stroke="#000000" stroke-miterlimit="10" x1="67.5" y1="157.397" x2="94.559" y2="157.397"/>
	<line fill="none" stroke="#000000" stroke-miterlimit="10" x1="25.176" y1="20.5" x2="25.176" y2="48.627"/>
	<line fill="none" stroke="#000000" stroke-miterlimit="10" x1="638.088" y1="96.755" x2="669.853" y2="97.005"/>
</g>
<g id="Offices">
	<g id="office16">
		<rect x="701.618" y="96.755" fill="#F6F6F6" stroke="#000000" stroke-miterlimit="10" width="54.332" height="96.255"/>
	</g>
	<g id="office14">
		<rect x="701.618" y="0.5" fill="#FFFFFF" stroke="#000000" stroke-miterlimit="10" width="54.332" height="96.255"/>
	</g>
	<g id="office2">
		<rect x="49.853" y="33.941" fill="#FFFFFF" stroke="#000000" stroke-miterlimit="10" width="35.294" height="62.814"/>
	</g>
	<g id="office23">
		<rect x="49.853" y="96.755" fill="#FFFFFF" stroke="#000000" stroke-miterlimit="10" width="35.294" height="96.255"/>
	</g>
	<g id="office1">
		<rect x="0.5" y="33.941" fill="#FFFFFF" stroke="#000000" stroke-miterlimit="10" width="49.353" height="62.814"/>
	</g>
	<g id="office24">
		<rect x="0.5" y="96.755" fill="#FFFFFF" stroke="#000000" stroke-miterlimit="10" width="49.353" height="96.255"/>
	</g>
	<g id="office3">
		<rect x="129.853" y="33.441" fill="#FFFFFF" stroke="#000000" stroke-miterlimit="10" width="32.941" height="63.314"/>
	</g>
	<g id="office4">
		<rect x="162.794" y="33.441" fill="#FFFFFF" stroke="#000000" stroke-miterlimit="10" width="34.118" height="63.314"/>
	</g>
	<g id="office5">
		<rect x="196.912" y="33.441" fill="#FFFFFF" stroke="#000000" stroke-miterlimit="10" width="32.941" height="63.314"/>
	</g>
	<g id="office6">
		<rect x="229.853" y="33.441" fill="#FFFFFF" stroke="#000000" stroke-miterlimit="10" width="97.647" height="63.314"/>
	</g>
	<g id="office8">
		<rect x="362.794" y="33.441" fill="#FFFFFF" stroke="#000000" stroke-miterlimit="10" width="37.647" height="63.314"/>
	</g>
	<g id="office9">
		<rect x="400.441" y="33.441" fill="#FFFFFF" stroke="#000000" stroke-miterlimit="10" width="35.294" height="63.314"/>
	</g>
	<g id="office10">
		<rect x="435.735" y="33.441" fill="#FFFFFF" stroke="#000000" stroke-miterlimit="10" width="38.824" height="63.314"/>
	</g>
	<g id="office11">
		<rect x="474.559" y="33.441" fill="#FFFFFF" stroke="#000000" stroke-miterlimit="10" width="80" height="127.127"/>
	</g>
	<g id="office12">
		<rect x="554.559" y="33.441" fill="#FFFFFF" stroke="#000000" stroke-miterlimit="10" width="36.471" height="63.314"/>
	</g>
	<g id="office17">
		<rect x="554.559" y="96.755" fill="#FFFFFF" stroke="#000000" stroke-miterlimit="10" width="36.471" height="63.814"/>
	</g>
	<g id="office18">
		<rect x="435.735" y="96.755" fill="#FFFFFF" stroke="#000000" stroke-miterlimit="10" width="38.824" height="63.814"/>
	</g>
	<g id="office19">
		<rect x="362.794" y="96.755" fill="#FFFFFF" stroke="#000000" stroke-miterlimit="10" width="72.941" height="63.814"/>
	</g>
	<g id="office20">
		<rect x="278.676" y="96.755" fill="#FFFFFF" stroke="#000000" stroke-miterlimit="10" width="84.118" height="63.814"/>
	</g>
	<g id="office21">
		<rect x="162.794" y="96.755" fill="#FFFFFF" stroke="#000000" stroke-miterlimit="10" width="115.882" height="63.814"/>
	</g>
	<g id="office22">
		<rect x="129.853" y="96.755" fill="#FFFFFF" stroke="#000000" stroke-miterlimit="10" width="32.941" height="63.814"/>
	</g>
	<g id="office13">
		<rect x="591.029" y="33.441" fill="#FFFFFF" stroke="#000000" stroke-miterlimit="10" width="65.882" height="127.127"/>
	</g>
	<g id="office7">
		<rect x="327.5" y="33.441" fill="#FFFFFF" stroke="#000000" stroke-miterlimit="10" width="35.294" height="63.314"/>
	</g>
</g>
</svg>
