<svg xmlns="http://www.w3.org/2000/svg" xmlns:se="http://svg-edit.googlecode.com" xmlns:xlink="http://www.w3.org/1999/xlink" xmlns:dc="http://purl.org/dc/elements/1.1/" xmlns:cc="http://creativecommons.org/ns#" xmlns:rdf="http://www.w3.org/1999/02/22-rdf-syntax-ns#" xmlns:inkscape="http://www.inkscape.org/namespaces/inkscape" width="777" height="480">                                    <title>my vector image</title>                                    <!-- Created with Vector Paint - http://www.vectorpaint.yaks.com/ https://chrome.google.com/webstore/detail/hnbpdiengicdefcjecjbnjnoifekhgdo -->                                    <rect id="backgroundrect" width="100%" height="100%" x="0" y="0" fill="#FFFFFF" stroke="none"/>                                <g class="currentLayer"><title>Layer 1</title><polyline fill="none" stroke="#222222" stroke-width="2" stroke-linejoin="round" stroke-dashoffset="" fill-rule="nonzero" marker-start="" marker-mid="" marker-end="" id="svg_1" points="163.5999937057495,98.40000009536743 162.00000286102295,99.20000314712524 158.00000286102295,101.60001230239868 146.80000591278076,105.60001230239868 138.80000591278076,108.00000619888306 131.5999937057495,110.40000009536743 126.7999906539917,112.80000925064087 117.19999980926514,120.00000619888306 112.39999675750732,123.20000314712524 110.00000286102295,126.40000009536743 106.00000286102295,130.40000009536743 104.39999675750732,132.80000925064087 102.00000286102295,136.80000925064087 101.19999980926514,139.20000314712524 99.60000133514404,143.20000314712524 98.00000286102295,146.40000009536743 95.60000133514404,149.60001230239868 94.79999828338623,156.00000619888306 94.00000286102295,159.20000314712524 94.00000286102295,162.4000153541565 93.19999980926514,165.60001230239868 93.19999980926514,168.80000925064087 93.19999980926514,170.4000153541565 92.39999675750732,173.60001230239868 92.39999675750732,176.00000619888306 92.39999675750732,179.20000314712524 92.39999675750732,180.80000925064087 92.39999675750732,182.4000153541565 92.39999675750732,184.00000619888306 92.39999675750732,185.60001230239868 92.39999675750732,186.4000153541565 92.39999675750732,188.00000619888306 92.39999675750732,189.60001230239868 94.79999828338623,190.4000153541565 95.60000133514404,192.00000619888306 96.39999675750732,192.80000925064087 98.79999828338623,194.4000153541565 100.39999675750732,195.20000314712524 102.00000286102295,196.80000925064087 103.60000133514404,197.60001230239868 107.60000133514404,198.4000153541565 110.79999828338623,199.20000314712524 114.00000286102295,199.20000314712524 116.39999675750732,199.20000314712524 118.7999906539917,199.20000314712524 120.39999675750732,199.20000314712524 124.39999675750732,199.20000314712524 127.59999370574951,200.00000619888306 130.7999906539917,200.00000619888306 136.39999675750732,200.00000619888306 142.00000286102295,197.60001230239868 146.80000591278076,196.80000925064087 153.19999980926514,195.20000314712524 159.5999937057495,193.60001230239868 166.80000591278076,191.20000314712524 170.80000591278076,189.60001230239868 174.80000591278076,187.20000314712524 177.19999980926514,184.80000925064087 178.80000591278076,184.80000925064087 182.80000591278076,180.80000925064087 184.39999675750732,180.00000619888306 185.19999980926514,177.60001230239868 186.00000286102295,175.20000314712524 186.80000591278076,173.60001230239868 186.80000591278076,169.60001230239868 186.80000591278076,165.60001230239868 187.5999937057495,162.4000153541565 188.39999675750732,157.60001230239868 189.19999980926514,154.40000009536743 189.19999980926514,151.20000314712524 191.5999937057495,146.40000009536743 192.39999675750732,141.60001230239868 194.00000286102295,138.40000009536743 194.00000286102295,134.40000009536743 194.80000591278076,131.20000314712524 195.5999937057495,127.20000314712524 197.19999980926514,122.40000009536743 198.00000286102295,117.60001230239868 198.80000591278076,111.20000314712524 198.80000591278076,106.40000009536743 198.80000591278076,102.40000009536743 198.80000591278076,100.80000925064087 198.80000591278076,99.20000314712524 198.80000591278076,98.40000009536743 198.80000591278076,97.60001230239868 198.00000286102295,96.00000619888306 197.19999980926514,95.19999551773071 196.39999675750732,94.40000009536743 196.39999675750732,93.59999704360962 195.5999937057495,92.7999939918518 194.00000286102295,91.19999551773071 191.5999937057495,90.40000009536743 190.00000286102295,89.59999704360962 186.80000591278076,88.7999939918518 184.39999675750732,88.00000619888306 181.19999980926514,88.00000619888306 178.80000591278076,87.19999551773071 178.00000286102295,87.19999551773071 176.39999675750732,87.19999551773071 175.5999937057495,87.19999551773071 174.00000286102295,87.19999551773071 173.19999980926514,87.19999551773071 172.39999675750732,87.19999551773071 170.00000286102295,87.19999551773071 168.39999675750732,88.00000619888306 166.80000591278076,89.59999704360962 166.00000286102295,89.59999704360962 164.39999675750732,91.19999551773071 163.5999937057495,91.19999551773071 163.5999937057495,92.00000619888306 162.80000591278076,92.7999939918518 162.80000591278076,93.59999704360962 162.80000591278076,94.40000009536743 162.00000286102295,95.19999551773071 161.19999980926514,96.00000619888306 160.39999675750732,96.80000925064087 " style="color: rgb(0, 0, 0);" class="selected"/><polyline fill="none" stroke="#222222" stroke-width="2" stroke-linejoin="round" stroke-dashoffset="" fill-rule="nonzero" marker-start="" marker-mid="" marker-end="" id="svg_2" points="349.20000000000005,64 346.8,64 332.40000000000003,65.6 325.20000000000005,68 318,71.20000000000002 310.8,74.4 301.20000000000005,77.6 294,81.6 286,85.6 279.6,87.19999999999999 274,90.4 269.2,94.4 266,98.4 264.40000000000003,100.80000000000001 262,103.2 259.6,108 258.8,111.20000000000002 255.6,114.4 254,119.20000000000002 253.2,121.6 253.2,127.20000000000002 253.2,132 253.2,136.8 254,142.4 254,148 254.8,152.8 255.6,156 257.2,159.20000000000002 258.8,164 262.8,168 265.2,171.20000000000002 269.2,174.4 274.8,177.6 277.2,180 282,183.20000000000002 286,184.8 292.40000000000003,187.20000000000002 296.40000000000003,188.8 302,190.4 310,191.20000000000002 315.6,192 322,192 330,189.6 337.20000000000005,189.6 343.6,188.8 350,188.8 356.40000000000003,188 360.40000000000003,184.8 362,184 364.40000000000003,183.20000000000002 366,181.6 367.6,180.8 370,178.4 372.40000000000003,173.6 374.8,170.4 376.40000000000003,167.20000000000002 378,163.20000000000002 378.8,160 380.40000000000003,155.20000000000002 382.8,152 382.8,149.6 382.8,147.20000000000002 383.6,144 383.6,142.4 383.6,139.20000000000002 383.6,136 382.8,133.6 382.8,130.4 381.20000000000005,122.4 381.20000000000005,120.8 379.6,117.6 376.40000000000003,112.8 375.6,110.4 374,108 372.40000000000003,105.6 372.40000000000003,104 371.6,101.6 370,100 369.20000000000005,97.6 368.40000000000003,97.6 366.8,96 364.40000000000003,92.80000000000001 362,91.19999999999999 361.20000000000005,88.80000000000001 359.6,87.19999999999999 358,85.6 357.20000000000005,84.80000000000001 355.6,83.20000000000002 355.6,82.4 354,81.6 353.20000000000005,80.80000000000001 352.40000000000003,79.20000000000002 351.6,77.6 348.40000000000003,74.4 346,68.80000000000001 345.20000000000005,67.20000000000002 343.6,66.4 343.6,64.80000000000001 342.8,64 342,64 " style="color: rgb(0, 0, 0);"/></g></svg>